<svg xmlns="http://www.w3.org/2000/svg" id="Jewellery" viewBox="-3 -3 184 56"><g id="deeditor_bgCarrier" stroke-width="0">
    <rect id="dee_c_e" x="-3" y="-3" width="184" height="56" rx="0" fill="#ffffff" strokewidth="0"/>
  </g><defs fill="#000000"><style>.cls-1{fill:#222;}</style></defs><path class="cls-1" d="M58.56,1.93l-.16.92a111.06,111.06,0,0,1-4.09,16,65.78,65.78,0,0,1-6,12.63Q35.91,51.82,21.22,51.82A22.32,22.32,0,0,1,13,50.23,19,19,0,0,1,6.3,46a13.74,13.74,0,0,1-4-10.07A12.65,12.65,0,0,1,7,25.92a17.32,17.32,0,0,1,11.67-4q11.1,0,24.13,9l-2.93,1.95a50.79,50.79,0,0,0-12-6.34,33.87,33.87,0,0,0-11.63-2.52,13.57,13.57,0,0,0-9,2.93,9.23,9.23,0,0,0-3.54,7.43,12.93,12.93,0,0,0,1.44,5.82,15.14,15.14,0,0,0,4,5A16.81,16.81,0,0,0,15,48.12a24.42,24.42,0,0,0,7.3,1.14q12,0,20.7-11.79a59.9,59.9,0,0,0,6.1-10.85A56.86,56.86,0,0,0,53,15L54.21,9l.71-3.58c0-.23.11-.57.18-1a17.9,17.9,0,0,1-2.4.18l-2.45,0a8.44,8.44,0,0,0-2.32.32,5.18,5.18,0,0,0-2.79,1.87,4.92,4.92,0,0,0-1.06,3.11A6,6,0,0,0,44.94,13,18,18,0,0,0,48,16.51c1.44,1.37,2.16,2.63,2.16,3.77a7.45,7.45,0,0,1-1.65,4.5c-1.09,1.46-2.21,2.2-3.33,2.2A2.77,2.77,0,0,1,43,26a3.71,3.71,0,0,1-.84-2.52,4.48,4.48,0,0,1,.05-.61c1.14,1.62,2.28,2.43,3.4,2.43,1.65,0,2.48-.86,2.48-2.59q0-1.55-2.58-3.93a8.88,8.88,0,0,1-3.19-6.72,9.81,9.81,0,0,1,3-7.2,9.87,9.87,0,0,1,7.21-3L55,1.9,57.24,2Q58.05,2,58.56,1.93Z" transform="translate(-2.34 -1.75)" fill="#000000"/><path class="cls-1" d="M68.76,26.32a3,3,0,0,1,.37,1.32q0,2.53-3.51,5.82-5.12,4.83-8.7,4.83-3.08,0-3.08-3.51a17.14,17.14,0,0,1,2.41-8.3,22.41,22.41,0,0,1,6.18-7.17q4.59-3.43,8.18-3.43c1.39,0,2.08.51,2.08,1.53a4.41,4.41,0,0,1-1,2.41,11.39,11.39,0,0,1-2.51,2.54,16.12,16.12,0,0,1-3.54,1.9,9.77,9.77,0,0,1-3.31.87,1.74,1.74,0,0,1-1.72-1.37,12.55,12.55,0,0,0,1.77.16,8.43,8.43,0,0,0,4.87-1.52c1.48-1,2.22-2.1,2.22-3.28,0-.84-.54-1.26-1.63-1.26q-2.93,0-6,3.58a22.24,22.24,0,0,0-3.56,5.91,16,16,0,0,0-1.39,6c0,1.81.75,2.72,2.26,2.72,1.66,0,3.37-.91,5.16-2.73A21.83,21.83,0,0,0,68.76,26.32Z" transform="translate(-2.34 -1.75)" fill="#000000"/><path class="cls-1" d="M91,16.75h9Q97.19,25,88.72,31.91l-3.08,2.53c-.58.48-1.29,1.08-2.11,1.82l-1.77,1.58a5.54,5.54,0,0,1-.53.42L81.52,37q.77-3.69,1.61-8.36,1.14-6.51,1.5-8.33a16.51,16.51,0,0,0-1.84,3q-5.64,11-11.52,14.84a71.44,71.44,0,0,0,3.09-9.23,30.32,30.32,0,0,0,1.18-7.3c0-1.69-.39-2.53-1.16-2.53a3.3,3.3,0,0,0-1.66.87l-.43-.74.56-.37q2.22-1.45,3.66-2.61a4,4,0,0,1,2.22,4c0,2.59-.86,6.37-2.59,11.37l-.44,1.31A29.33,29.33,0,0,0,77.57,30l2.32-4.25q4-7.2,8.44-9.83L84.48,34q.67-.59,4-3.17Q95.78,25,97,19.57H92.33a2.16,2.16,0,0,0-2.13,1.26L89.64,22q0,.11-.21.42h-1Z" transform="translate(-2.34 -1.75)" fill="#000000"/><path class="cls-1" d="M110.45,26.32a3.08,3.08,0,0,1,.37,1.32q0,2.53-3.51,5.82-5.11,4.83-8.7,4.83-3.09,0-3.09-3.51a17.16,17.16,0,0,1,2.42-8.3,22.29,22.29,0,0,1,6.18-7.17q4.59-3.43,8.17-3.43c1.39,0,2.09.51,2.09,1.53a4.49,4.49,0,0,1-1,2.41,11.61,11.61,0,0,1-2.51,2.54,16,16,0,0,1-3.55,1.9,9.66,9.66,0,0,1-3.31.87,1.74,1.74,0,0,1-1.71-1.37,12.55,12.55,0,0,0,1.77.16,8.37,8.37,0,0,0,4.86-1.52c1.49-1,2.23-2.1,2.23-3.28,0-.84-.54-1.26-1.63-1.26-2,0-4,1.19-6,3.58A22,22,0,0,0,100,27.35a16,16,0,0,0-1.4,6c0,1.81.76,2.72,2.27,2.72s3.37-.91,5.16-2.73A21.83,21.83,0,0,0,110.45,26.32Z" transform="translate(-2.34 -1.75)" fill="#000000"/><path class="cls-1" d="M126.9,1.75q0,3.21-4.27,12.89-7.41,16.85-7.54,19.56c0,.79.28,1.17,1,1.14a6.45,6.45,0,0,0,2.71-1.56l.32-.24.5.69Q115.32,38,113.35,38c-1.06,0-1.58-.74-1.58-2.22a15.58,15.58,0,0,1,1.09-4.8q1.1-3.08,5.23-13l2.51-6q2.27-5.4,2.27-6.3c0-.47-.28-.71-.82-.71a6.71,6.71,0,0,0-1.4.34l-.39.13L120,4.62l.4-.16Q125,2.72,126.9,1.75Z" transform="translate(-2.34 -1.75)" fill="#000000"/><path class="cls-1" d="M135.73,1.75q0,3.21-4.27,12.89Q124,31.49,123.92,34.2c0,.79.28,1.17,1,1.14a6.46,6.46,0,0,0,2.72-1.56l.31-.24.5.69Q124.15,38,122.18,38c-1.05,0-1.58-.74-1.58-2.22a15.58,15.58,0,0,1,1.09-4.8q1.09-3.08,5.24-13l2.5-6q2.26-5.4,2.27-6.3c0-.47-.27-.71-.82-.71a6.54,6.54,0,0,0-1.39.34,3.14,3.14,0,0,1-.4.13l-.26-.76.39-.16Q133.78,2.72,135.73,1.75Z" transform="translate(-2.34 -1.75)" fill="#000000"/><path class="cls-1" d="M143.78,26.32a3.08,3.08,0,0,1,.37,1.32q0,2.53-3.51,5.82-5.12,4.83-8.7,4.83-3.09,0-3.09-3.51a17.16,17.16,0,0,1,2.42-8.3,22.17,22.17,0,0,1,6.18-7.17q4.59-3.43,8.17-3.43c1.39,0,2.09.51,2.09,1.53a4.44,4.44,0,0,1-1,2.41,11.34,11.34,0,0,1-2.5,2.54,16.21,16.21,0,0,1-3.55,1.9,9.66,9.66,0,0,1-3.31.87,1.74,1.74,0,0,1-1.71-1.37,12.55,12.55,0,0,0,1.77.16,8.42,8.42,0,0,0,4.86-1.52c1.49-1,2.23-2.1,2.23-3.28,0-.84-.55-1.26-1.64-1.26q-2.92,0-6,3.58a22,22,0,0,0-3.56,5.91,16,16,0,0,0-1.4,6c0,1.81.76,2.72,2.27,2.72s3.37-.91,5.15-2.73A21.68,21.68,0,0,0,143.78,26.32Z" transform="translate(-2.34 -1.75)" fill="#000000"/><path class="cls-1" d="M163,16.19,162,18.86a8.79,8.79,0,0,0-1.77-.21q-3.06,0-6.54,4.69a26.28,26.28,0,0,0-2.81,4.88q-1.17,2.64-2.91,8l-.29.9a28.93,28.93,0,0,0-3.27.89l.29-.79L147,31.09q3.3-8.91,3.3-10.49c0-.55-.24-.82-.72-.82a5.68,5.68,0,0,0-1.76.71l-.35-.82a39.89,39.89,0,0,0,6.62-4,4.14,4.14,0,0,1,.11.87q0,2-1.82,6.78l.63-.74q6.15-6.75,8.7-6.75A2.79,2.79,0,0,1,163,16.19Z" transform="translate(-2.34 -1.75)" fill="#000000"/><path class="cls-1" d="M166.77,16.64a7.41,7.41,0,0,1,.42,2.67,40.31,40.31,0,0,1-1.53,9.22A57,57,0,0,1,173.43,20c2.4-2.06,4.32-3.1,5.76-3.1,1,0,1.53.86,1.53,2.56q0,6.49-7.6,14.58a29.08,29.08,0,0,1-6.48,5.43,19.9,19.9,0,0,1-7,2.35,12.05,12.05,0,0,0-4.9,1.58,3.38,3.38,0,0,0-1.51,2.93,2.64,2.64,0,0,0,1.44,2.31,7.12,7.12,0,0,0,3.73.88,10,10,0,0,0,5.17-1.4q-.62,3.3-5.14,3.3A7.17,7.17,0,0,1,154,50.08a4,4,0,0,1-1.72-3.35c0-1.73.86-3.54,2.56-5.43a6.65,6.65,0,0,1,2.65-1.85,27.19,27.19,0,0,1,5.29-.9,12.78,12.78,0,0,0,5.61-1.71,19.93,19.93,0,0,0,5.8-5.67,20.55,20.55,0,0,0,2.35-4.55,12.55,12.55,0,0,0,.95-4.23c0-1.44-.48-2.16-1.45-2.16q-2.45,0-6.8,5.25a54.46,54.46,0,0,0-7.49,12l-.24.5h-.92l.26-1q3-10.58,3-15.27c0-1.11-.36-1.66-1.08-1.66a3.79,3.79,0,0,0-1.22.29,3.34,3.34,0,0,1-.36.13L161,19.7a2.61,2.61,0,0,0,.39-.21l2.48-1.21,2.53-1.4Z" transform="translate(-2.34 -1.75)" fill="#000000"/></svg>